<mxfile host="app.diagrams.net" modified="2023-09-25T11:52:31.690Z" agent="Mozilla/5.0 (Windows NT 10.0; Win64; x64) AppleWebKit/537.36 (KHTML, like Gecko) Chrome/116.0.0.0 Safari/537.36" etag="ds8jEXVcu1Y10A26KwoX" version="21.7.5" type="device">
  <diagram name="Page-1" id="PuNEXJHJj11RhWsaELsF">
    <mxGraphModel dx="1400" dy="755" grid="1" gridSize="10" guides="1" tooltips="1" connect="1" arrows="1" fold="1" page="1" pageScale="1" pageWidth="3300" pageHeight="2339" math="0" shadow="0">
      <root>
        <mxCell id="0" />
        <mxCell id="1" parent="0" />
        <mxCell id="LXpDGVzcy0IPF0YWuRob-46" style="edgeStyle=orthogonalEdgeStyle;rounded=0;orthogonalLoop=1;jettySize=auto;html=1;exitX=0.5;exitY=1;exitDx=0;exitDy=0;exitPerimeter=0;entryX=0.5;entryY=0;entryDx=0;entryDy=0;" edge="1" parent="1" source="LXpDGVzcy0IPF0YWuRob-1" target="LXpDGVzcy0IPF0YWuRob-17">
          <mxGeometry relative="1" as="geometry" />
        </mxCell>
        <mxCell id="LXpDGVzcy0IPF0YWuRob-1" value="" style="strokeWidth=2;html=1;shape=mxgraph.flowchart.terminator;whiteSpace=wrap;" vertex="1" parent="1">
          <mxGeometry x="370" y="30" width="100" height="60" as="geometry" />
        </mxCell>
        <mxCell id="LXpDGVzcy0IPF0YWuRob-2" value="&lt;span style=&quot;font-size: 16px;&quot;&gt;mulai&lt;/span&gt;" style="text;html=1;strokeColor=none;fillColor=none;align=center;verticalAlign=middle;whiteSpace=wrap;rounded=0;" vertex="1" parent="1">
          <mxGeometry x="390" y="45" width="60" height="25" as="geometry" />
        </mxCell>
        <mxCell id="LXpDGVzcy0IPF0YWuRob-49" style="edgeStyle=orthogonalEdgeStyle;rounded=0;orthogonalLoop=1;jettySize=auto;html=1;exitX=0.5;exitY=1;exitDx=0;exitDy=0;entryX=0.5;entryY=0;entryDx=0;entryDy=0;" edge="1" parent="1" source="LXpDGVzcy0IPF0YWuRob-16" target="LXpDGVzcy0IPF0YWuRob-30">
          <mxGeometry relative="1" as="geometry" />
        </mxCell>
        <mxCell id="LXpDGVzcy0IPF0YWuRob-16" value="Dollar&amp;nbsp; &amp;nbsp;= nilairupiah *&amp;nbsp; 0.000065&lt;br&gt;Yen&amp;nbsp; &amp;nbsp; &amp;nbsp; = nilairupiah * 0.0097&lt;br&gt;Ringgit = nilairupiah * 0.00031" style="rounded=1;whiteSpace=wrap;html=1;absoluteArcSize=1;arcSize=14;strokeWidth=2;align=left;" vertex="1" parent="1">
          <mxGeometry x="325" y="400" width="190" height="70" as="geometry" />
        </mxCell>
        <mxCell id="LXpDGVzcy0IPF0YWuRob-47" style="edgeStyle=orthogonalEdgeStyle;rounded=0;orthogonalLoop=1;jettySize=auto;html=1;exitX=0.5;exitY=1;exitDx=0;exitDy=0;entryX=0.5;entryY=0;entryDx=0;entryDy=0;" edge="1" parent="1" source="LXpDGVzcy0IPF0YWuRob-17" target="LXpDGVzcy0IPF0YWuRob-25">
          <mxGeometry relative="1" as="geometry" />
        </mxCell>
        <mxCell id="LXpDGVzcy0IPF0YWuRob-17" value="" style="shape=parallelogram;html=1;strokeWidth=2;perimeter=parallelogramPerimeter;whiteSpace=wrap;rounded=1;arcSize=12;size=0.23;" vertex="1" parent="1">
          <mxGeometry x="290" y="140" width="260" height="80" as="geometry" />
        </mxCell>
        <mxCell id="LXpDGVzcy0IPF0YWuRob-24" value="&lt;div style=&quot;&quot;&gt;&lt;span style=&quot;background-color: initial;&quot;&gt;input&lt;/span&gt;&lt;/div&gt;&lt;div style=&quot;text-align: left;&quot;&gt;&lt;span style=&quot;background-color: initial;&quot;&gt;Nama : Indah Dwi Suciati&lt;/span&gt;&lt;/div&gt;&lt;span style=&quot;&quot;&gt;&lt;div style=&quot;text-align: left;&quot;&gt;&lt;span style=&quot;background-color: initial;&quot;&gt;NIM : 2309116076&lt;/span&gt;&lt;/div&gt;&lt;/span&gt;&lt;span style=&quot;&quot;&gt;&lt;div style=&quot;text-align: left;&quot;&gt;&lt;span style=&quot;background-color: initial;&quot;&gt;Kelas : Sistem infromasi B&lt;/span&gt;&lt;/div&gt;&lt;/span&gt;" style="text;html=1;strokeColor=none;fillColor=none;align=center;verticalAlign=middle;whiteSpace=wrap;rounded=0;" vertex="1" parent="1">
          <mxGeometry x="335" y="165" width="170" height="30" as="geometry" />
        </mxCell>
        <mxCell id="LXpDGVzcy0IPF0YWuRob-48" style="edgeStyle=orthogonalEdgeStyle;rounded=0;orthogonalLoop=1;jettySize=auto;html=1;exitX=0.5;exitY=1;exitDx=0;exitDy=0;entryX=0.5;entryY=0;entryDx=0;entryDy=0;" edge="1" parent="1" source="LXpDGVzcy0IPF0YWuRob-25" target="LXpDGVzcy0IPF0YWuRob-16">
          <mxGeometry relative="1" as="geometry" />
        </mxCell>
        <mxCell id="LXpDGVzcy0IPF0YWuRob-25" value="" style="shape=parallelogram;html=1;strokeWidth=2;perimeter=parallelogramPerimeter;whiteSpace=wrap;rounded=1;arcSize=12;size=0.23;" vertex="1" parent="1">
          <mxGeometry x="290" y="260" width="260" height="100" as="geometry" />
        </mxCell>
        <mxCell id="LXpDGVzcy0IPF0YWuRob-28" value="&lt;div style=&quot;text-align: center;&quot;&gt;&lt;span style=&quot;background-color: initial;&quot;&gt;input&lt;/span&gt;&lt;/div&gt;Masukkan nilai uang Rupiah&lt;br style=&quot;border-color: var(--border-color);&quot;&gt;&lt;span style=&quot;&quot;&gt;Masukkan nilai uang Dollar&lt;/span&gt;&lt;br style=&quot;border-color: var(--border-color);&quot;&gt;&lt;span style=&quot;&quot;&gt;Masukkan nilai uang Yen&lt;/span&gt;&lt;br style=&quot;border-color: var(--border-color);&quot;&gt;&lt;span style=&quot;&quot;&gt;Masukkan nilai uang Ringgit&lt;/span&gt;" style="text;html=1;strokeColor=none;fillColor=none;align=left;verticalAlign=middle;whiteSpace=wrap;rounded=0;" vertex="1" parent="1">
          <mxGeometry x="340" y="290" width="210" height="30" as="geometry" />
        </mxCell>
        <mxCell id="LXpDGVzcy0IPF0YWuRob-50" style="edgeStyle=orthogonalEdgeStyle;rounded=0;orthogonalLoop=1;jettySize=auto;html=1;exitX=0.5;exitY=1;exitDx=0;exitDy=0;entryX=0.5;entryY=0;entryDx=0;entryDy=0;" edge="1" parent="1" source="LXpDGVzcy0IPF0YWuRob-30" target="LXpDGVzcy0IPF0YWuRob-35">
          <mxGeometry relative="1" as="geometry" />
        </mxCell>
        <mxCell id="LXpDGVzcy0IPF0YWuRob-56" style="edgeStyle=orthogonalEdgeStyle;rounded=0;orthogonalLoop=1;jettySize=auto;html=1;exitX=1;exitY=0.5;exitDx=0;exitDy=0;entryX=0;entryY=0.5;entryDx=0;entryDy=0;" edge="1" parent="1" source="LXpDGVzcy0IPF0YWuRob-30" target="LXpDGVzcy0IPF0YWuRob-31">
          <mxGeometry relative="1" as="geometry" />
        </mxCell>
        <mxCell id="LXpDGVzcy0IPF0YWuRob-30" value="pilihan 1&lt;br&gt;Rupiah ke Dollar&amp;nbsp;" style="rhombus;whiteSpace=wrap;html=1;" vertex="1" parent="1">
          <mxGeometry x="322.5" y="530" width="195" height="90" as="geometry" />
        </mxCell>
        <mxCell id="LXpDGVzcy0IPF0YWuRob-57" style="edgeStyle=orthogonalEdgeStyle;rounded=0;orthogonalLoop=1;jettySize=auto;html=1;exitX=1;exitY=0.5;exitDx=0;exitDy=0;" edge="1" parent="1" source="LXpDGVzcy0IPF0YWuRob-31" target="LXpDGVzcy0IPF0YWuRob-34">
          <mxGeometry relative="1" as="geometry" />
        </mxCell>
        <mxCell id="LXpDGVzcy0IPF0YWuRob-31" value="konversi_Rupiah_ke_Dollar =&lt;br&gt;&lt;div style=&quot;text-align: center;&quot;&gt;&lt;span style=&quot;background-color: initial;&quot;&gt;RupiahToDollar / Rupiah&lt;/span&gt;&lt;/div&gt;" style="rounded=1;whiteSpace=wrap;html=1;absoluteArcSize=1;arcSize=14;strokeWidth=2;align=left;" vertex="1" parent="1">
          <mxGeometry x="615" y="550" width="160" height="50" as="geometry" />
        </mxCell>
        <mxCell id="LXpDGVzcy0IPF0YWuRob-61" style="edgeStyle=orthogonalEdgeStyle;rounded=0;orthogonalLoop=1;jettySize=auto;html=1;exitX=0.5;exitY=1;exitDx=0;exitDy=0;entryX=1;entryY=0.5;entryDx=0;entryDy=0;entryPerimeter=0;" edge="1" parent="1" source="LXpDGVzcy0IPF0YWuRob-34" target="LXpDGVzcy0IPF0YWuRob-42">
          <mxGeometry relative="1" as="geometry" />
        </mxCell>
        <mxCell id="LXpDGVzcy0IPF0YWuRob-34" value="Output&lt;br&gt;Hasil Rupiah&amp;nbsp;&lt;br&gt;ke Dollar" style="shape=parallelogram;html=1;strokeWidth=2;perimeter=parallelogramPerimeter;whiteSpace=wrap;rounded=1;arcSize=12;size=0.23;" vertex="1" parent="1">
          <mxGeometry x="850" y="550" width="160" height="50" as="geometry" />
        </mxCell>
        <mxCell id="LXpDGVzcy0IPF0YWuRob-51" style="edgeStyle=orthogonalEdgeStyle;rounded=0;orthogonalLoop=1;jettySize=auto;html=1;exitX=0.5;exitY=1;exitDx=0;exitDy=0;entryX=0.5;entryY=0;entryDx=0;entryDy=0;" edge="1" parent="1" source="LXpDGVzcy0IPF0YWuRob-35" target="LXpDGVzcy0IPF0YWuRob-38">
          <mxGeometry relative="1" as="geometry" />
        </mxCell>
        <mxCell id="LXpDGVzcy0IPF0YWuRob-62" style="edgeStyle=orthogonalEdgeStyle;rounded=0;orthogonalLoop=1;jettySize=auto;html=1;exitX=1;exitY=0.5;exitDx=0;exitDy=0;" edge="1" parent="1" source="LXpDGVzcy0IPF0YWuRob-35" target="LXpDGVzcy0IPF0YWuRob-36">
          <mxGeometry relative="1" as="geometry" />
        </mxCell>
        <mxCell id="LXpDGVzcy0IPF0YWuRob-35" value="pilihan 2&lt;br&gt;Rupiah ke Dollar&amp;nbsp;" style="rhombus;whiteSpace=wrap;html=1;" vertex="1" parent="1">
          <mxGeometry x="322.5" y="670" width="195" height="90" as="geometry" />
        </mxCell>
        <mxCell id="LXpDGVzcy0IPF0YWuRob-63" style="edgeStyle=orthogonalEdgeStyle;rounded=0;orthogonalLoop=1;jettySize=auto;html=1;exitX=1;exitY=0.5;exitDx=0;exitDy=0;" edge="1" parent="1" source="LXpDGVzcy0IPF0YWuRob-36" target="LXpDGVzcy0IPF0YWuRob-37">
          <mxGeometry relative="1" as="geometry" />
        </mxCell>
        <mxCell id="LXpDGVzcy0IPF0YWuRob-36" value="konversi_Rupiah_ke_Yen =&lt;br&gt;&lt;div style=&quot;text-align: center;&quot;&gt;&lt;span style=&quot;background-color: initial;&quot;&gt;RupiahToYen / Rupiah&lt;/span&gt;&lt;/div&gt;" style="rounded=1;whiteSpace=wrap;html=1;absoluteArcSize=1;arcSize=14;strokeWidth=2;align=left;" vertex="1" parent="1">
          <mxGeometry x="610" y="690" width="160" height="50" as="geometry" />
        </mxCell>
        <mxCell id="LXpDGVzcy0IPF0YWuRob-37" value="Output&lt;br&gt;Hasil Rupiah&amp;nbsp;&lt;br&gt;ke Yen" style="shape=parallelogram;html=1;strokeWidth=2;perimeter=parallelogramPerimeter;whiteSpace=wrap;rounded=1;arcSize=12;size=0.23;" vertex="1" parent="1">
          <mxGeometry x="850" y="690" width="160" height="50" as="geometry" />
        </mxCell>
        <mxCell id="LXpDGVzcy0IPF0YWuRob-54" value="" style="edgeStyle=orthogonalEdgeStyle;rounded=0;orthogonalLoop=1;jettySize=auto;html=1;" edge="1" parent="1" source="LXpDGVzcy0IPF0YWuRob-38" target="LXpDGVzcy0IPF0YWuRob-41">
          <mxGeometry relative="1" as="geometry" />
        </mxCell>
        <mxCell id="LXpDGVzcy0IPF0YWuRob-64" style="edgeStyle=orthogonalEdgeStyle;rounded=0;orthogonalLoop=1;jettySize=auto;html=1;exitX=1;exitY=0.5;exitDx=0;exitDy=0;entryX=0;entryY=0.5;entryDx=0;entryDy=0;" edge="1" parent="1" source="LXpDGVzcy0IPF0YWuRob-38" target="LXpDGVzcy0IPF0YWuRob-39">
          <mxGeometry relative="1" as="geometry" />
        </mxCell>
        <mxCell id="LXpDGVzcy0IPF0YWuRob-38" value="pilihan 3&lt;br&gt;Rupiah ke Ringgit&amp;nbsp;" style="rhombus;whiteSpace=wrap;html=1;" vertex="1" parent="1">
          <mxGeometry x="322.5" y="820" width="195" height="90" as="geometry" />
        </mxCell>
        <mxCell id="LXpDGVzcy0IPF0YWuRob-65" style="edgeStyle=orthogonalEdgeStyle;rounded=0;orthogonalLoop=1;jettySize=auto;html=1;exitX=1;exitY=0.5;exitDx=0;exitDy=0;entryX=0;entryY=0.5;entryDx=0;entryDy=0;" edge="1" parent="1" source="LXpDGVzcy0IPF0YWuRob-39" target="LXpDGVzcy0IPF0YWuRob-40">
          <mxGeometry relative="1" as="geometry" />
        </mxCell>
        <mxCell id="LXpDGVzcy0IPF0YWuRob-39" value="konversi_Rupiah_ke_Ringgit =&lt;br&gt;&lt;div style=&quot;text-align: center;&quot;&gt;&lt;span style=&quot;background-color: initial;&quot;&gt;RupiahToRinggit / Rupiah&lt;/span&gt;&lt;/div&gt;" style="rounded=1;whiteSpace=wrap;html=1;absoluteArcSize=1;arcSize=14;strokeWidth=2;align=left;" vertex="1" parent="1">
          <mxGeometry x="605" y="840" width="170" height="50" as="geometry" />
        </mxCell>
        <mxCell id="LXpDGVzcy0IPF0YWuRob-40" value="Output&lt;br&gt;Hasil Rupiah&amp;nbsp;&lt;br&gt;ke Ringgit" style="shape=parallelogram;html=1;strokeWidth=2;perimeter=parallelogramPerimeter;whiteSpace=wrap;rounded=1;arcSize=12;size=0.23;" vertex="1" parent="1">
          <mxGeometry x="850" y="840" width="160" height="50" as="geometry" />
        </mxCell>
        <mxCell id="LXpDGVzcy0IPF0YWuRob-55" style="edgeStyle=orthogonalEdgeStyle;rounded=0;orthogonalLoop=1;jettySize=auto;html=1;exitX=0.5;exitY=1;exitDx=0;exitDy=0;entryX=0.5;entryY=0;entryDx=0;entryDy=0;entryPerimeter=0;" edge="1" parent="1" source="LXpDGVzcy0IPF0YWuRob-41" target="LXpDGVzcy0IPF0YWuRob-42">
          <mxGeometry relative="1" as="geometry" />
        </mxCell>
        <mxCell id="LXpDGVzcy0IPF0YWuRob-41" value="Default&lt;br&gt;pilihan 1&lt;br&gt;pilihan 2&lt;br&gt;pilihan 3" style="rounded=1;whiteSpace=wrap;html=1;absoluteArcSize=1;arcSize=14;strokeWidth=2;align=center;" vertex="1" parent="1">
          <mxGeometry x="335" y="970" width="170" height="70" as="geometry" />
        </mxCell>
        <mxCell id="LXpDGVzcy0IPF0YWuRob-42" value="selesai" style="strokeWidth=2;html=1;shape=mxgraph.flowchart.terminator;whiteSpace=wrap;" vertex="1" parent="1">
          <mxGeometry x="370" y="1100" width="100" height="60" as="geometry" />
        </mxCell>
      </root>
    </mxGraphModel>
  </diagram>
</mxfile>
